<svg width="17" height="12" viewBox="0 0 17 12" fill="none" xmlns="http://www.w3.org/2000/svg">
<path d="M0.850512 9.53674e-07H16.1509C16.3059 0.000459671 16.4577 0.0407419 16.5901 0.116511C16.7226 0.192282 16.8306 0.30067 16.9025 0.43001C16.9745 0.559351 17.0077 0.704746 16.9985 0.850545C16.9893 0.996343 16.9382 1.13702 16.8505 1.25744L9.2003 11.676C8.88324 12.108 8.11992 12.108 7.80201 11.676L0.151792 1.25744C0.0632406 1.13727 0.011312 0.996523 0.00164813 0.850482C-0.00801576 0.704441 0.0249547 0.558696 0.0969773 0.429081C0.169 0.299466 0.27732 0.190939 0.410169 0.115292C0.543018 0.0396452 0.695314 -0.000228882 0.850512 9.53674e-07Z" fill="#F8F8F8"></path>
</svg>
