<svg width="37" height="33" viewBox="0 0 37 33" fill="none" xmlns="http://www.w3.org/2000/svg">
<g filter="url(#filter0_d_12_521)">
<path d="M32 12.4993H13.9684M7.60368 12.4993H5M7.60368 12.4993C7.60368 11.7427 7.93888 11.0171 8.53555 10.482C9.13222 9.947 9.94148 9.64643 10.7853 9.64643C11.6291 9.64643 12.4384 9.947 13.035 10.482C13.6317 11.0171 13.9669 11.7427 13.9669 12.4993C13.9669 13.256 13.6317 13.9816 13.035 14.5167C12.4384 15.0517 11.6291 15.3523 10.7853 15.3523C9.94148 15.3523 9.13222 15.0517 8.53555 14.5167C7.93888 13.9816 7.60368 13.256 7.60368 12.4993ZM32 21.1458H23.611M23.611 21.1458C23.611 21.9026 23.275 22.6291 22.6782 23.1642C22.0814 23.6994 21.272 24 20.4279 24C19.5841 24 18.7749 23.6981 18.1782 23.1631C17.5815 22.6281 17.2463 21.9024 17.2463 21.1458M23.611 21.1458C23.611 20.389 23.275 19.6638 22.6782 19.1286C22.0814 18.5935 21.272 18.2929 20.4279 18.2929C19.5841 18.2929 18.7749 18.5934 18.1782 19.1285C17.5815 19.6635 17.2463 20.3891 17.2463 21.1458M17.2463 21.1458H5M32 3.85292H27.4684M21.1037 3.85292H5M21.1037 3.85292C21.1037 3.09628 21.4389 2.37063 22.0356 1.8356C22.6322 1.30057 23.4415 1 24.2853 1C24.7031 1 25.1168 1.07379 25.5029 1.21717C25.8889 1.36054 26.2396 1.57068 26.535 1.8356C26.8305 2.10052 27.0648 2.41502 27.2247 2.76115C27.3846 3.10728 27.4669 3.47827 27.4669 3.85292C27.4669 4.22757 27.3846 4.59855 27.2247 4.94468C27.0648 5.29081 26.8305 5.60531 26.535 5.87023C26.2396 6.13515 25.8889 6.34529 25.5029 6.48867C25.1168 6.63204 24.7031 6.70583 24.2853 6.70583C23.4415 6.70583 22.6322 6.40526 22.0356 5.87023C21.4389 5.33521 21.1037 4.60956 21.1037 3.85292Z" stroke="#433030" stroke-width="1.5" stroke-miterlimit="10" stroke-linecap="round" shape-rendering="crispEdges"/>
</g>
<defs>
<filter id="filter0_d_12_521" x="0.25" y="0.25" width="36.5" height="32.5" filterUnits="userSpaceOnUse" color-interpolation-filters="sRGB">
<feFlood flood-opacity="0" result="BackgroundImageFix"/>
<feColorMatrix in="SourceAlpha" type="matrix" values="0 0 0 0 0 0 0 0 0 0 0 0 0 0 0 0 0 0 127 0" result="hardAlpha"/>
<feOffset dy="4"/>
<feGaussianBlur stdDeviation="2"/>
<feComposite in2="hardAlpha" operator="out"/>
<feColorMatrix type="matrix" values="0 0 0 0 0 0 0 0 0 0 0 0 0 0 0 0 0 0 0.25 0"/>
<feBlend mode="normal" in2="BackgroundImageFix" result="effect1_dropShadow_12_521"/>
<feBlend mode="normal" in="SourceGraphic" in2="effect1_dropShadow_12_521" result="shape"/>
</filter>
</defs>
</svg>
